<mxfile host="app.diagrams.net" modified="2024-04-16T14:00:43.101Z" agent="Mozilla/5.0 (Macintosh; Intel Mac OS X 10_15_7) AppleWebKit/537.36 (KHTML, like Gecko) Chrome/123.0.0.0 Safari/537.36" etag="lHP2HEF7TxCpL5hxBjSa" version="24.2.5" type="github">
  <diagram name="Página-1" id="hR9pUqVtUt8uoQrfLuzN">
    <mxGraphModel dx="789" dy="500" grid="1" gridSize="10" guides="1" tooltips="1" connect="1" arrows="1" fold="1" page="1" pageScale="1" pageWidth="827" pageHeight="1169" math="0" shadow="0">
      <root>
        <mxCell id="0" />
        <mxCell id="1" parent="0" />
        <mxCell id="LnQoIK6ZbdIod05Vmi34-1" value="Muebles" style="whiteSpace=wrap;html=1;align=center;fillColor=#dae8fc;strokeColor=#6c8ebf;rounded=1;" vertex="1" parent="1">
          <mxGeometry x="580" y="680" width="100" height="40" as="geometry" />
        </mxCell>
        <mxCell id="LnQoIK6ZbdIod05Vmi34-7" style="edgeStyle=orthogonalEdgeStyle;rounded=0;orthogonalLoop=1;jettySize=auto;html=1;entryX=0.5;entryY=0;entryDx=0;entryDy=0;endArrow=none;endFill=0;" edge="1" parent="1" source="LnQoIK6ZbdIod05Vmi34-2" target="LnQoIK6ZbdIod05Vmi34-6">
          <mxGeometry relative="1" as="geometry" />
        </mxCell>
        <mxCell id="LnQoIK6ZbdIod05Vmi34-2" value="Madera" style="whiteSpace=wrap;html=1;align=center;fillColor=#dae8fc;strokeColor=#6c8ebf;rounded=1;" vertex="1" parent="1">
          <mxGeometry x="580" y="440" width="100" height="40" as="geometry" />
        </mxCell>
        <mxCell id="LnQoIK6ZbdIod05Vmi34-3" value="Cliente" style="whiteSpace=wrap;html=1;align=center;fillColor=#dae8fc;strokeColor=#6c8ebf;rounded=1;" vertex="1" parent="1">
          <mxGeometry y="840" width="100" height="40" as="geometry" />
        </mxCell>
        <mxCell id="LnQoIK6ZbdIod05Vmi34-4" value="OrdenCompra" style="whiteSpace=wrap;html=1;align=center;fillColor=#dae8fc;strokeColor=#6c8ebf;rounded=1;" vertex="1" parent="1">
          <mxGeometry x="200" y="920" width="100" height="40" as="geometry" />
        </mxCell>
        <mxCell id="LnQoIK6ZbdIod05Vmi34-20" style="edgeStyle=orthogonalEdgeStyle;rounded=0;orthogonalLoop=1;jettySize=auto;html=1;entryX=0;entryY=0.5;entryDx=0;entryDy=0;endArrow=none;endFill=0;" edge="1" parent="1" source="LnQoIK6ZbdIod05Vmi34-5" target="LnQoIK6ZbdIod05Vmi34-19">
          <mxGeometry relative="1" as="geometry" />
        </mxCell>
        <mxCell id="LnQoIK6ZbdIod05Vmi34-28" style="edgeStyle=orthogonalEdgeStyle;rounded=0;orthogonalLoop=1;jettySize=auto;html=1;entryX=0.5;entryY=0;entryDx=0;entryDy=0;endArrow=none;endFill=0;" edge="1" parent="1" source="LnQoIK6ZbdIod05Vmi34-5" target="LnQoIK6ZbdIod05Vmi34-27">
          <mxGeometry relative="1" as="geometry" />
        </mxCell>
        <mxCell id="LnQoIK6ZbdIod05Vmi34-5" value="Catálogo" style="whiteSpace=wrap;html=1;align=center;fillColor=#dae8fc;strokeColor=#6c8ebf;rounded=1;" vertex="1" parent="1">
          <mxGeometry x="200" y="680" width="100" height="40" as="geometry" />
        </mxCell>
        <mxCell id="LnQoIK6ZbdIod05Vmi34-8" style="edgeStyle=orthogonalEdgeStyle;rounded=0;orthogonalLoop=1;jettySize=auto;html=1;endArrow=none;endFill=0;" edge="1" parent="1" source="LnQoIK6ZbdIod05Vmi34-6" target="LnQoIK6ZbdIod05Vmi34-1">
          <mxGeometry relative="1" as="geometry" />
        </mxCell>
        <mxCell id="LnQoIK6ZbdIod05Vmi34-6" value="Contiene" style="shape=rhombus;perimeter=rhombusPerimeter;whiteSpace=wrap;html=1;align=center;fillColor=#ffe6cc;strokeColor=#d79b00;" vertex="1" parent="1">
          <mxGeometry x="580" y="560" width="100" height="50" as="geometry" />
        </mxCell>
        <mxCell id="LnQoIK6ZbdIod05Vmi34-9" value="M : N" style="text;strokeColor=none;fillColor=none;spacingLeft=4;spacingRight=4;overflow=hidden;rotatable=0;points=[[0,0.5],[1,0.5]];portConstraint=eastwest;fontSize=12;whiteSpace=wrap;html=1;fontStyle=1" vertex="1" parent="1">
          <mxGeometry x="680" y="570" width="40" height="30" as="geometry" />
        </mxCell>
        <mxCell id="LnQoIK6ZbdIod05Vmi34-10" value="1 : N" style="text;strokeColor=none;fillColor=none;spacingLeft=4;spacingRight=4;overflow=hidden;rotatable=0;points=[[0,0.5],[1,0.5]];portConstraint=eastwest;fontSize=12;whiteSpace=wrap;html=1;fontStyle=1" vertex="1" parent="1">
          <mxGeometry x="630" y="480" width="40" height="30" as="geometry" />
        </mxCell>
        <mxCell id="LnQoIK6ZbdIod05Vmi34-11" value="1 : M" style="text;strokeColor=none;fillColor=none;spacingLeft=4;spacingRight=4;overflow=hidden;rotatable=0;points=[[0,0.5],[1,0.5]];portConstraint=eastwest;fontSize=12;whiteSpace=wrap;html=1;fontStyle=1" vertex="1" parent="1">
          <mxGeometry x="630" y="650" width="40" height="30" as="geometry" />
        </mxCell>
        <mxCell id="LnQoIK6ZbdIod05Vmi34-14" style="edgeStyle=orthogonalEdgeStyle;rounded=0;orthogonalLoop=1;jettySize=auto;html=1;entryX=0.5;entryY=0;entryDx=0;entryDy=0;endArrow=none;endFill=0;" edge="1" parent="1" source="LnQoIK6ZbdIod05Vmi34-12" target="LnQoIK6ZbdIod05Vmi34-13">
          <mxGeometry relative="1" as="geometry" />
        </mxCell>
        <mxCell id="LnQoIK6ZbdIod05Vmi34-12" value="Proveedor" style="whiteSpace=wrap;html=1;align=center;fillColor=#dae8fc;strokeColor=#6c8ebf;rounded=1;" vertex="1" parent="1">
          <mxGeometry x="580" y="240" width="100" height="40" as="geometry" />
        </mxCell>
        <mxCell id="LnQoIK6ZbdIod05Vmi34-15" style="edgeStyle=orthogonalEdgeStyle;rounded=0;orthogonalLoop=1;jettySize=auto;html=1;entryX=0.5;entryY=0;entryDx=0;entryDy=0;endArrow=none;endFill=0;" edge="1" parent="1" source="LnQoIK6ZbdIod05Vmi34-13" target="LnQoIK6ZbdIod05Vmi34-2">
          <mxGeometry relative="1" as="geometry" />
        </mxCell>
        <mxCell id="LnQoIK6ZbdIod05Vmi34-13" value="Distribuye" style="shape=rhombus;perimeter=rhombusPerimeter;whiteSpace=wrap;html=1;align=center;fillColor=#ffe6cc;strokeColor=#d79b00;" vertex="1" parent="1">
          <mxGeometry x="580" y="340" width="100" height="50" as="geometry" />
        </mxCell>
        <mxCell id="LnQoIK6ZbdIod05Vmi34-16" value="M : N" style="text;strokeColor=none;fillColor=none;spacingLeft=4;spacingRight=4;overflow=hidden;rotatable=0;points=[[0,0.5],[1,0.5]];portConstraint=eastwest;fontSize=12;whiteSpace=wrap;html=1;fontStyle=1" vertex="1" parent="1">
          <mxGeometry x="680" y="350" width="40" height="30" as="geometry" />
        </mxCell>
        <mxCell id="LnQoIK6ZbdIod05Vmi34-17" value="1 : M" style="text;strokeColor=none;fillColor=none;spacingLeft=4;spacingRight=4;overflow=hidden;rotatable=0;points=[[0,0.5],[1,0.5]];portConstraint=eastwest;fontSize=12;whiteSpace=wrap;html=1;fontStyle=1" vertex="1" parent="1">
          <mxGeometry x="630" y="280" width="40" height="30" as="geometry" />
        </mxCell>
        <mxCell id="LnQoIK6ZbdIod05Vmi34-18" value="1 : M" style="text;strokeColor=none;fillColor=none;spacingLeft=4;spacingRight=4;overflow=hidden;rotatable=0;points=[[0,0.5],[1,0.5]];portConstraint=eastwest;fontSize=12;whiteSpace=wrap;html=1;fontStyle=1" vertex="1" parent="1">
          <mxGeometry x="630" y="410" width="40" height="30" as="geometry" />
        </mxCell>
        <mxCell id="LnQoIK6ZbdIod05Vmi34-21" style="edgeStyle=orthogonalEdgeStyle;rounded=0;orthogonalLoop=1;jettySize=auto;html=1;entryX=0;entryY=0.5;entryDx=0;entryDy=0;endArrow=none;endFill=0;" edge="1" parent="1" source="LnQoIK6ZbdIod05Vmi34-19" target="LnQoIK6ZbdIod05Vmi34-1">
          <mxGeometry relative="1" as="geometry" />
        </mxCell>
        <mxCell id="LnQoIK6ZbdIod05Vmi34-19" value="Contiene" style="shape=rhombus;perimeter=rhombusPerimeter;whiteSpace=wrap;html=1;align=center;fillColor=#ffe6cc;strokeColor=#d79b00;" vertex="1" parent="1">
          <mxGeometry x="390" y="675" width="100" height="50" as="geometry" />
        </mxCell>
        <mxCell id="LnQoIK6ZbdIod05Vmi34-22" value="1 : M" style="text;strokeColor=none;fillColor=none;spacingLeft=4;spacingRight=4;overflow=hidden;rotatable=0;points=[[0,0.5],[1,0.5]];portConstraint=eastwest;fontSize=12;whiteSpace=wrap;html=1;fontStyle=1" vertex="1" parent="1">
          <mxGeometry x="420" y="645" width="40" height="30" as="geometry" />
        </mxCell>
        <mxCell id="LnQoIK6ZbdIod05Vmi34-23" value="1 : M" style="text;strokeColor=none;fillColor=none;spacingLeft=4;spacingRight=4;overflow=hidden;rotatable=0;points=[[0,0.5],[1,0.5]];portConstraint=eastwest;fontSize=12;whiteSpace=wrap;html=1;fontStyle=1" vertex="1" parent="1">
          <mxGeometry x="540" y="670" width="40" height="30" as="geometry" />
        </mxCell>
        <mxCell id="LnQoIK6ZbdIod05Vmi34-24" value="1 : 1" style="text;strokeColor=none;fillColor=none;spacingLeft=4;spacingRight=4;overflow=hidden;rotatable=0;points=[[0,0.5],[1,0.5]];portConstraint=eastwest;fontSize=12;whiteSpace=wrap;html=1;fontStyle=1" vertex="1" parent="1">
          <mxGeometry x="300" y="670" width="40" height="30" as="geometry" />
        </mxCell>
        <mxCell id="LnQoIK6ZbdIod05Vmi34-29" style="edgeStyle=orthogonalEdgeStyle;rounded=0;orthogonalLoop=1;jettySize=auto;html=1;entryX=0.5;entryY=0;entryDx=0;entryDy=0;endArrow=none;endFill=0;" edge="1" parent="1" source="LnQoIK6ZbdIod05Vmi34-27" target="LnQoIK6ZbdIod05Vmi34-4">
          <mxGeometry relative="1" as="geometry" />
        </mxCell>
        <mxCell id="LnQoIK6ZbdIod05Vmi34-27" value="Registrar" style="shape=rhombus;perimeter=rhombusPerimeter;whiteSpace=wrap;html=1;align=center;fillColor=#ffe6cc;strokeColor=#d79b00;" vertex="1" parent="1">
          <mxGeometry x="200" y="800" width="100" height="50" as="geometry" />
        </mxCell>
        <mxCell id="LnQoIK6ZbdIod05Vmi34-30" value="M : N" style="text;strokeColor=none;fillColor=none;spacingLeft=4;spacingRight=4;overflow=hidden;rotatable=0;points=[[0,0.5],[1,0.5]];portConstraint=eastwest;fontSize=12;whiteSpace=wrap;html=1;fontStyle=1" vertex="1" parent="1">
          <mxGeometry x="300" y="810" width="40" height="30" as="geometry" />
        </mxCell>
        <mxCell id="LnQoIK6ZbdIod05Vmi34-31" value="1 : M" style="text;strokeColor=none;fillColor=none;spacingLeft=4;spacingRight=4;overflow=hidden;rotatable=0;points=[[0,0.5],[1,0.5]];portConstraint=eastwest;fontSize=12;whiteSpace=wrap;html=1;fontStyle=1" vertex="1" parent="1">
          <mxGeometry x="250" y="890" width="40" height="30" as="geometry" />
        </mxCell>
        <mxCell id="LnQoIK6ZbdIod05Vmi34-32" value="1 : M" style="text;strokeColor=none;fillColor=none;spacingLeft=4;spacingRight=4;overflow=hidden;rotatable=0;points=[[0,0.5],[1,0.5]];portConstraint=eastwest;fontSize=12;whiteSpace=wrap;html=1;fontStyle=1" vertex="1" parent="1">
          <mxGeometry x="250" y="720" width="40" height="30" as="geometry" />
        </mxCell>
      </root>
    </mxGraphModel>
  </diagram>
</mxfile>
